<svg width="329" height="45" viewBox="0 0 329 45" fill="none" xmlns="http://www.w3.org/2000/svg">
<g clip-path="url(#clip0_18_160)">
<path d="M79.5626 17.4301H81.411V30.4093H79.5626V17.4301Z" fill="#56514B"/>
<path d="M107.495 17.4301V30.4093H105.982L98.2374 20.7306V30.4093H96.389V17.4301H97.8966L105.641 27.1088V17.4301H107.495Z" fill="#56514B"/>
<path d="M133.563 17.4301L127.884 30.4093H126.051L120.371 17.4301H122.364L127.011 28.0933L131.704 17.4301H133.563Z" fill="#56514B"/>
<path d="M146.29 17.4301H148.138V30.4093H146.29V17.4301Z" fill="#56514B"/>
<path d="M174.227 17.4301V30.4093H172.709L164.965 20.7306V30.4093H163.116V17.4301H164.634L172.379 27.1088V17.4301H174.227Z" fill="#56514B"/>
<path d="M198.576 28.7979V30.4093H189.185V17.4301H198.313V19.0415H191.033V23.0207H197.544V24.5751H191.033V28.7669L198.576 28.7979Z" fill="#56514B"/>
<path d="M211.484 28.9275L212.17 27.4819C213.376 28.467 214.886 28.9985 216.44 28.9845C218.676 28.9845 219.636 28.114 219.636 26.9793C219.636 23.8083 211.799 25.8135 211.799 20.9896C211.799 18.9896 213.348 17.2798 216.755 17.2798C218.222 17.254 219.665 17.6534 220.912 18.4301L220.261 19.9119C219.199 19.2388 217.97 18.8796 216.714 18.8756C214.514 18.8756 213.57 19.8031 213.57 20.9482C213.57 24.1192 221.407 22.1347 221.407 26.9016C221.407 28.886 219.817 30.5907 216.399 30.5907C214.442 30.5596 212.516 29.8912 211.484 28.9275Z" fill="#56514B"/>
<path d="M235.203 17.4301H237.051V30.4093H235.203V17.4301Z" fill="#56514B"/>
<path d="M260.259 27.1658H253.382L251.962 30.4093H250.057L255.917 17.4301H257.745L263.631 30.4093H261.689L260.259 27.1658ZM259.609 25.684L256.821 19.3212L254.032 25.684H259.609Z" fill="#56514B"/>
<path d="M291.088 23.9223C291.088 20.0829 294.01 17.2798 297.944 17.2798C298.86 17.2436 299.774 17.4058 300.622 17.7554C301.47 18.105 302.233 18.6337 302.859 19.3057L301.656 20.4715C301.198 19.9703 300.639 19.5726 300.016 19.3046C299.393 19.0367 298.72 18.9046 298.042 18.9171C296.724 18.9171 295.459 19.4428 294.527 20.3785C293.594 21.3143 293.07 22.5834 293.07 23.9067C293.07 25.2301 293.594 26.4992 294.527 27.4349C295.459 28.3707 296.724 28.8964 298.042 28.8964C298.72 28.9076 299.392 28.7749 300.015 28.507C300.638 28.2391 301.197 27.8421 301.656 27.342L302.859 28.5078C302.231 29.1839 301.465 29.7162 300.613 30.0685C299.762 30.4208 298.844 30.5847 297.924 30.5492C294.01 30.5596 291.088 27.7617 291.088 23.9223Z" fill="#56514B"/>
<path d="M315.261 23.9223C315.261 20.1192 318.183 17.2798 322.154 17.2798C326.124 17.2798 329.01 20.0984 329.01 23.9223C329.01 27.7461 326.093 30.5596 322.154 30.5596C318.214 30.5596 315.261 27.7254 315.261 23.9223ZM327.136 23.9223C327.147 22.9209 326.862 21.9388 326.315 21.101C325.768 20.2632 324.986 19.6075 324.067 19.2174C323.148 18.8273 322.134 18.7203 321.154 18.9103C320.174 19.1002 319.273 19.5784 318.565 20.2839C317.856 20.9894 317.373 21.8905 317.177 22.8723C316.981 23.8542 317.08 24.8724 317.462 25.7976C317.844 26.7227 318.492 27.5128 319.323 28.0674C320.154 28.622 321.13 28.9159 322.128 28.9119C322.788 28.9325 323.446 28.8178 324.06 28.5748C324.675 28.3319 325.233 27.9657 325.702 27.4987C326.171 27.0317 326.54 26.4737 326.786 25.8588C327.033 25.2438 327.152 24.5849 327.136 23.9223Z" fill="#56514B"/>
<path d="M277.612 32.1244C278.556 32.1244 279.321 31.3565 279.321 30.4093C279.321 29.4621 278.556 28.6943 277.612 28.6943C276.668 28.6943 275.903 29.4621 275.903 30.4093C275.903 31.3565 276.668 32.1244 277.612 32.1244Z" fill="#56514B"/>
<path d="M57.3047 7.99482C57.3 7.89732 57.2879 7.80033 57.2686 7.70466C57.2372 7.43797 57.1906 7.17329 57.1292 6.91192C57.0982 6.79793 57.0775 6.68394 57.0414 6.56995C57.0436 6.55448 57.0436 6.53878 57.0414 6.52332C57.0104 6.39378 56.9691 6.25907 56.9227 6.12436C56.8762 5.98964 56.8504 5.89637 56.8091 5.78756C56.7678 5.67875 56.7419 5.60622 56.7058 5.51813C56.6821 5.47116 56.6614 5.42271 56.6438 5.37306C56.5974 5.26425 56.5457 5.15543 56.4941 5.05699C56.4425 4.95854 56.3754 4.79793 56.3031 4.67876C56.2308 4.55959 56.1379 4.37823 56.0449 4.23315C55.8356 3.89085 55.6027 3.56363 55.3479 3.25389L55.0691 2.93265L54.7748 2.62695L54.4857 2.34715C54.4134 2.27979 54.336 2.20726 54.2533 2.1399C54.193 2.08405 54.1292 2.03212 54.0623 1.98445C53.9797 1.91709 53.8971 1.84974 53.8145 1.79274C53.7319 1.73575 53.577 1.62175 53.4634 1.54403C53.2279 1.37818 52.9831 1.22596 52.7302 1.08809L52.3533 0.901552C52.2346 0.839375 52.121 0.79274 51.9971 0.735745C51.4487 0.50903 50.8798 0.335527 50.2984 0.21761L49.8699 0.139893H49.8338C49.6944 0.139893 49.555 0.098439 49.4156 0.0880763C49.2649 0.068069 49.1132 0.0559747 48.9612 0.0518188C48.8167 0.0518188 48.6669 0.0518188 48.5172 0.0518188C48.2153 0.0531381 47.9137 0.0704206 47.6137 0.10362C47.5148 0.10804 47.4164 0.12017 47.3194 0.139893C47.0604 0.170981 46.8035 0.217692 46.5501 0.279784C46.4261 0.301183 46.3037 0.330612 46.1835 0.367873C46.0389 0.404143 45.8892 0.45078 45.7446 0.502594L45.409 0.616584L45.1457 0.720201L45.0012 0.782375C44.8912 0.825168 44.7843 0.875373 44.681 0.932638C44.552 0.994815 44.4229 1.05181 44.3042 1.12435C44.1854 1.19688 44.0047 1.29016 43.8601 1.37824C43.5201 1.59186 43.1942 1.82722 42.8843 2.0829C42.7759 2.17098 42.6675 2.26943 42.5694 2.3627C42.4713 2.45596 42.3628 2.55441 42.2596 2.65804L41.9808 2.94819L41.7329 3.22797L41.6761 3.30052L39.6626 5.70466L25.7585 22.3316L21.0549 27.9534L18.9897 30.43C17.8689 31.355 16.5379 31.988 15.1148 32.2727C13.6918 32.5574 12.2206 32.4851 10.8321 32.0622L14.2294 36.1243L18.6386 41.399L18.7574 41.5337C18.8451 41.6373 18.9277 41.7461 19.0104 41.8498L19.0981 41.9482C19.3594 42.2483 19.6369 42.5337 19.9294 42.8031C20.221 43.0621 20.5298 43.3009 20.8536 43.5181C20.9878 43.6062 21.122 43.6943 21.2614 43.7772C21.6742 44.0236 22.1058 44.2367 22.5522 44.4145C22.9969 44.5815 23.4523 44.7182 23.9153 44.8238C24.2147 44.886 24.5142 44.9326 24.8188 44.9689H24.8756C25.0305 44.9689 25.1802 45 25.3299 45.0052C25.4797 45.0104 25.6242 45.0052 25.774 45.0052H26.2231C26.3734 45.0008 26.5233 44.9887 26.6723 44.9689H26.7343C27.0337 44.9326 27.3384 44.886 27.6327 44.8238C28.0958 44.719 28.5513 44.5822 28.9957 44.4145C29.4352 44.2275 29.8583 44.004 30.2606 43.7461L30.6737 43.487C30.7976 43.399 30.9267 43.3109 31.0454 43.2124L31.1745 43.114C31.2486 43.0597 31.3193 43.0008 31.3862 42.9378C31.4843 42.8549 31.5875 42.772 31.6908 42.6788C31.7941 42.5855 31.887 42.4922 31.9851 42.3938C32.0832 42.2953 32.1245 42.2539 32.1916 42.1762C32.2587 42.0984 32.4085 41.943 32.5117 41.8187L32.8577 41.4093L37.2979 36.0984L39.6419 33.2902V36.1036C39.6419 38.4603 40.5748 40.7205 42.2354 42.387C43.8959 44.0534 46.1482 44.9897 48.4965 44.9897C50.8449 44.9897 53.0971 44.0534 54.7577 42.387C56.4183 40.7205 57.3512 38.4603 57.3512 36.1036V8.88601C57.3507 8.58835 57.3352 8.2909 57.3047 7.99482Z" fill="url(#paint0_linear_18_160)"/>
<path d="M14.5443 22.7513C13.2428 23.8536 11.6498 24.5521 9.95952 24.7617C10.302 25.5579 10.7557 26.3011 11.3071 26.9689C11.3742 27.0466 11.431 27.1192 11.4981 27.1917C11.5385 27.2407 11.5816 27.2874 11.6272 27.3316C10.4371 27.291 9.26741 27.0094 8.18851 26.5037C7.1096 25.9979 6.14372 25.2785 5.34891 24.3886C5.2818 24.3161 5.225 24.2435 5.15788 24.1658C5.09593 24.0829 5.0288 24.0104 4.96685 23.9327C3.94031 23.4233 3.02163 22.7196 2.26141 21.8601L2.06521 21.6373C0.651103 19.8209 -0.00431937 17.5241 0.237315 15.2318C0.47895 12.9395 1.59873 10.8312 3.36025 9.35188C5.12178 7.87258 7.38717 7.1381 9.67818 7.3035C11.9692 7.4689 14.1065 8.52124 15.6389 10.2383L15.8351 10.4819C16.307 11.0877 16.6976 11.7532 16.9968 12.4611C17.7403 14.2137 17.9033 16.1596 17.4617 18.0122C17.0202 19.8647 15.9975 21.526 14.5443 22.7513Z" fill="url(#paint1_linear_18_160)"/>
<path d="M0.676359 17.1969C0.676159 15.3873 1.21828 13.6195 2.23227 12.1232C3.24626 10.6268 4.68526 9.47115 6.3623 8.80623C8.03933 8.14131 9.87687 7.99792 11.6362 8.39469C13.3955 8.79146 14.9952 9.71003 16.2275 11.0311C16.1036 10.8446 15.9693 10.6529 15.8299 10.4715L15.6337 10.228C14.1882 8.50387 12.1441 7.3952 9.91488 7.12632C7.68569 6.85745 5.43796 7.44846 3.62655 8.77974C1.81513 10.111 0.575287 12.0832 0.157934 14.2971C-0.259418 16.511 0.17688 18.8014 1.37853 20.7047C0.912504 19.5945 0.673711 18.4016 0.676359 17.1969Z" fill="url(#paint2_linear_18_160)"/>
</g>
<defs>
<linearGradient id="paint0_linear_18_160" x1="33.6786" y1="45.285" x2="35.2801" y2="-0.465922" gradientUnits="userSpaceOnUse">
<stop stop-color="#56514B"/>
<stop offset="1" stop-color="#CAC9C3"/>
</linearGradient>
<linearGradient id="paint1_linear_18_160" x1="5.3799" y1="25.5181" x2="11.9209" y2="7.60555" gradientUnits="userSpaceOnUse">
<stop offset="0.32" stop-color="#56514B"/>
<stop offset="1" stop-color="#E7E4DD"/>
</linearGradient>
<linearGradient id="paint2_linear_18_160" x1="3270.42" y1="7018.44" x2="3600.57" y2="6639.15" gradientUnits="userSpaceOnUse">
<stop offset="0.32" stop-color="#56514B"/>
<stop offset="1" stop-color="#E7E4DD"/>
</linearGradient>
<clipPath id="clip0_18_160">
<rect width="329" height="45" fill="white"/>
</clipPath>
</defs>
</svg>
