<svg width="24" height="19" viewBox="0 0 24 19" fill="none" xmlns="http://www.w3.org/2000/svg">
<path d="M23.9806 3.3309C23.9786 3.29002 23.9735 3.24934 23.9654 3.20923C23.9523 3.09739 23.9328 2.9864 23.9071 2.87679C23.8941 2.82899 23.8855 2.78118 23.8704 2.73338C23.8713 2.7269 23.8713 2.72031 23.8704 2.71383C23.8574 2.65951 23.8401 2.60302 23.8207 2.54652C23.8012 2.49003 23.7904 2.45092 23.7731 2.40529C23.7558 2.35966 23.745 2.32924 23.7299 2.2923C23.72 2.27261 23.7113 2.25229 23.704 2.23147C23.6845 2.18584 23.6629 2.1402 23.6413 2.09892C23.6197 2.05764 23.5916 1.99029 23.5614 1.94031C23.5311 1.89034 23.4922 1.81428 23.4533 1.75345C23.3657 1.6099 23.2683 1.47268 23.1616 1.34279L23.045 1.20808L22.9218 1.07988L22.8008 0.96255C22.7705 0.934303 22.7381 0.903886 22.7036 0.875639C22.6783 0.852216 22.6516 0.830439 22.6236 0.810451C22.589 0.782205 22.5545 0.753959 22.5199 0.730058C22.4853 0.706158 22.4205 0.658354 22.373 0.625762C22.2744 0.556209 22.1719 0.492375 22.0661 0.43456L21.9084 0.356336C21.8587 0.330263 21.8112 0.310706 21.7593 0.286805C21.5298 0.191732 21.2917 0.118973 21.0484 0.0695246L20.8691 0.0369339H20.854C20.7956 0.0369339 20.7373 0.0195502 20.6789 0.0152046C20.6159 0.0068145 20.5524 0.00174277 20.4888 0C20.4283 0 20.3656 0 20.303 0C20.1766 0.000553236 20.0504 0.00780068 19.9248 0.0217227C19.8835 0.0235763 19.8423 0.0286631 19.8017 0.0369339C19.6933 0.0499706 19.5858 0.0695589 19.4797 0.0955972C19.4278 0.104571 19.3766 0.116912 19.3263 0.132538C19.2658 0.147747 19.2032 0.167305 19.1427 0.189033L19.0022 0.236835L18.892 0.280287L18.8315 0.306359C18.7855 0.324304 18.7407 0.345358 18.6975 0.369372C18.6435 0.395446 18.5895 0.419346 18.5398 0.449765C18.4901 0.480184 18.4145 0.519299 18.354 0.556237C18.2117 0.645816 18.0753 0.744518 17.9456 0.851735C17.9002 0.888672 17.8548 0.929958 17.8138 0.969068C17.7727 1.00818 17.7274 1.04946 17.6841 1.09292L17.5675 1.2146L17.4638 1.33192L17.44 1.36234L16.5973 2.37052L10.7784 9.34304L8.80998 11.7005L7.94568 12.7391C7.47664 13.127 6.91961 13.3924 6.32405 13.5118C5.72848 13.6312 5.11282 13.6009 4.53171 13.4236L5.95348 15.127L7.79875 17.339L7.84845 17.3954C7.88518 17.4389 7.91976 17.4845 7.95433 17.528L7.99106 17.5693C8.10038 17.6951 8.21652 17.8148 8.33894 17.9278C8.461 18.0364 8.59022 18.1366 8.72571 18.2276C8.78189 18.2646 8.83807 18.3015 8.89641 18.3363C9.06915 18.4396 9.24978 18.529 9.4366 18.6035C9.6227 18.6735 9.81328 18.7309 10.007 18.7752C10.1324 18.8013 10.2577 18.8208 10.3852 18.836H10.4089C10.4738 18.836 10.5364 18.8491 10.5991 18.8512C10.6617 18.8534 10.7222 18.8512 10.7849 18.8512H10.9729C11.0358 18.8494 11.0985 18.8443 11.1609 18.836H11.1868C11.3121 18.8208 11.4396 18.8013 11.5628 18.7752C11.7566 18.7312 11.9472 18.6739 12.1332 18.6035C12.3171 18.5251 12.4942 18.4314 12.6626 18.3232L12.8354 18.2146C12.8873 18.1777 12.9413 18.1407 12.991 18.0994L13.045 18.0582C13.076 18.0354 13.1056 18.0107 13.1336 17.9843C13.1747 17.9495 13.2179 17.9148 13.2611 17.8756C13.3043 17.8365 13.3432 17.7974 13.3843 17.7561C13.4253 17.7149 13.4426 17.6975 13.4707 17.6649C13.4988 17.6323 13.5615 17.5671 13.6047 17.515L13.7494 17.3433L15.6077 15.1162L16.5887 13.9385V15.1184C16.5887 16.1066 16.9791 17.0545 17.674 17.7533C18.369 18.4521 19.3115 18.8447 20.2943 18.8447C21.2771 18.8447 22.2197 18.4521 22.9146 17.7533C23.6096 17.0545 24 16.1066 24 15.1184V3.70463C23.9998 3.5798 23.9933 3.45507 23.9806 3.3309Z" fill="#E2E2E2"/>
<path d="M6.08527 9.51904C5.54058 9.98129 4.87391 10.2742 4.16653 10.3621C4.30985 10.696 4.49974 11.0077 4.73049 11.2877V11.2877C4.75858 11.3203 4.78235 11.3507 4.81044 11.3811C4.82735 11.4017 4.84539 11.4213 4.86446 11.4398C4.36639 11.4228 3.87689 11.3047 3.42536 11.0926C2.97384 10.8805 2.56962 10.5788 2.23699 10.2057C2.2089 10.1752 2.18514 10.1448 2.15705 10.1122C2.13112 10.0775 2.10303 10.047 2.0771 10.0144C1.64749 9.80085 1.26302 9.50573 0.944869 9.14532L0.86276 9.05189C0.270953 8.29017 -0.00334173 7.327 0.0977826 6.36574C0.198907 5.40447 0.667537 4.52033 1.40474 3.89998C2.14193 3.27964 3.09001 2.97163 4.04879 3.04099C5.00758 3.11035 5.90205 3.55165 6.54335 4.27172L6.62546 4.37384C6.82297 4.6279 6.98643 4.90696 7.11163 5.20386C7.42278 5.9388 7.491 6.75481 7.30622 7.53167C7.12145 8.30854 6.69345 9.0052 6.08527 9.51904Z" fill="#E2E2E2"/>
<path d="M0.281556 7.18979C0.281472 6.43095 0.508349 5.68962 0.932707 5.06213C1.35706 4.43463 1.95929 3.94999 2.66113 3.67116C3.36297 3.39232 4.13198 3.33219 4.86825 3.49857C5.60451 3.66496 6.274 4.05017 6.78972 4.60415C6.73786 4.52593 6.68168 4.44554 6.62334 4.36949L6.54123 4.26737C5.93629 3.54436 5.0808 3.07944 4.14789 2.96669C3.21497 2.85393 2.27429 3.10177 1.51621 3.66005C0.758131 4.21832 0.239258 5.04534 0.0645951 5.97375C-0.110067 6.90216 0.0725236 7.86263 0.575417 8.66078C0.380383 8.19522 0.280448 7.69497 0.281556 7.18979V7.18979Z" fill="#E2E2E2"/>
</svg>
